<svg xmlns="http://www.w3.org/2000/svg" viewBox="205 170 790 365" aria-label="Éleve">
  <!-- Acento dorado -->
  <path d="M 284.76 238.98 C279.79,242.15 276.00,242.90 276.00,240.71 C276.00,239.39 285.73,227.73 312.33,197.16 C322.40,185.59 328.76,179.13 331.46,177.74 C334.80,176.02 337.87,175.58 349.16,175.20 C364.71,174.69 377.04,175.58 379.52,177.39 C381.09,178.54 381.04,178.84 378.86,181.30 C377.56,182.76 356.92,195.66 333.00,209.96 C309.08,224.26 287.37,237.32 284.76,238.98 Z" fill="#C9A46E"/>
  <!-- Letras oscuras -->
  <path d="M 406.73 517.75 C405.96,518.73 385.03,519.00 308.04,519.00 C254.30,519.00 210.03,518.70 209.67,518.33 C207.78,516.45 209.67,515.28 216.38,514.15 C229.99,511.86 235.79,507.17 237.97,496.65 C239.62,488.68 238.89,287.79 237.19,282.78 C235.67,278.30 231.73,273.43 228.13,271.57 C226.68,270.82 221.90,269.67 217.50,269.01 C207.75,267.54 205.61,267.22 205.13,266.15 C205.00,265.85 205.00,265.49 205.00,265.03 L 205.00 265.03 C205.00,263.63 205.90,262.93 208.25,262.51 C210.04,262.19 252.21,262.06 301.97,262.22 L 392.43 262.50 L 393.58 267.00 C394.21,269.48 395.69,275.55 396.86,280.50 C398.03,285.45 400.81,297.11 403.03,306.41 C407.10,323.42 407.14,325.56 403.39,324.84 C401.42,324.46 401.45,324.50 394.09,309.00 C385.80,291.55 376.24,281.16 362.90,275.11 C352.41,270.35 347.29,269.82 316.00,270.17 C288.63,270.49 287.33,270.59 283.26,272.76 C280.51,274.24 278.32,276.41 277.01,278.97 C275.07,282.78 275.00,284.78 275.00,334.84 C275.00,381.91 275.15,386.88 276.65,388.13 C277.94,389.20 282.98,389.50 299.40,389.49 C318.07,389.49 321.36,389.24 328.00,387.31 C341.71,383.34 351.34,376.19 356.39,366.21 C358.88,361.31 363.00,347.33 363.00,343.81 C363.00,342.54 363.75,342.00 365.51,342.00 L 368.02 342.00 L 367.76 389.75 C367.50,436.75 367.47,437.50 365.50,437.50 C363.86,437.50 362.95,435.80 360.41,427.95 C353.51,406.61 344.16,398.77 322.50,396.11 C309.70,394.54 278.87,394.64 276.66,396.26 C275.05,397.44 274.95,401.12 275.21,447.51 C275.50,497.02 275.52,497.54 277.73,501.67 C282.66,510.89 287.09,512.11 317.94,512.73 C353.56,513.46 366.77,511.01 381.98,500.86 C392.80,493.63 405.41,477.31 411.32,462.88 C414.72,454.59 415.57,453.81 418.84,455.88 C419.94,456.58 419.79,458.57 417.99,467.11 C413.58,488.12 409.91,505.64 408.82,511.00 C408.21,514.03 407.26,517.06 406.73,517.75 ZM 627.50 520.52 C621.61,522.14 596.51,523.42 591.00,522.37 C582.85,520.82 572.12,517.59 567.65,515.33 C551.17,506.99 537.70,493.01 530.68,476.94 C525.64,465.39 524.50,458.70 524.50,440.50 C524.50,421.57 525.76,415.49 532.55,401.76 C543.21,380.19 565.29,362.93 587.77,358.60 C605.30,355.21 627.55,357.17 641.00,363.27 C658.90,371.38 671.97,389.22 674.61,409.11 C674.68,409.68 674.77,410.20 674.86,410.68 C675.09,412.07 675.28,413.15 674.92,413.99 C673.61,417.04 665.21,417.03 626.61,417.01 C622.84,417.00 618.79,417.00 614.44,417.00 C568.88,417.00 555.94,417.27 555.31,418.25 C554.86,418.94 554.57,425.58 554.66,433.00 C554.79,444.65 555.19,447.67 557.52,455.00 C562.04,469.17 567.51,477.92 577.12,486.32 C588.15,495.97 600.28,500.33 616.00,500.30 C633.83,500.26 647.62,495.08 659.37,484.01 C663.16,480.44 667.59,475.15 669.22,472.26 C671.52,468.19 672.74,467.00 674.60,467.00 C677.45,467.00 677.70,469.15 675.61,476.00 C669.38,496.47 650.14,514.27 627.50,520.52 ZM 933.54 521.11 C914.08,525.12 892.39,522.51 876.73,514.25 C848.18,499.19 833.37,473.14 833.67,438.50 C833.86,416.14 841.03,398.64 856.88,381.77 C872.38,365.28 892.25,357.00 916.35,357.00 C945.19,357.00 966.28,368.52 976.86,390.06 C981.03,398.53 983.00,405.95 983.00,413.14 L 983.00 417.00 L 924.61 417.00 C872.28,417.00 866.15,417.16 865.61,418.58 C864.66,421.04 864.93,438.74 866.02,446.31 C868.15,461.02 877.61,478.47 887.89,486.66 C899.68,496.05 911.19,499.96 927.00,499.97 C947.92,499.97 965.12,490.86 976.47,473.75 C979.32,469.45 980.88,468.00 982.64,468.00 C985.64,468.00 985.69,470.07 982.89,477.55 C977.94,490.81 970.15,501.68 960.58,508.74 C951.52,515.41 943.62,519.03 933.54,521.11 ZM 507.80 517.77 C507.54,519.13 503.13,519.32 471.62,519.41 C443.14,519.48 435.64,519.23 435.25,518.21 C434.54,516.35 435.10,516.03 442.02,514.42 C450.59,512.42 453.62,510.03 455.48,503.77 C457.76,496.09 457.77,296.97 455.49,289.29 C453.75,283.41 451.73,281.79 442.12,278.55 C433.25,275.55 433.22,273.63 442.00,270.35 C448.19,268.03 461.27,263.19 476.50,257.58 C480.34,256.16 484.27,255.00 485.23,255.00 C486.86,255.00 486.98,262.13 487.23,380.25 C487.46,487.41 487.71,505.81 488.94,507.67 C490.88,510.60 496.36,513.49 502.80,514.99 C506.66,515.89 508.02,516.65 507.80,517.77 ZM 760.83 519.70 C759.47,521.34 757.54,521.36 756.25,519.75 C755.70,519.06 752.01,510.85 748.04,501.50 C744.08,492.15 740.23,483.15 739.50,481.50 C738.13,478.42 733.24,467.11 721.57,440.00 C717.89,431.48 713.14,420.45 711.00,415.50 C708.85,410.55 704.79,401.10 701.98,394.50 C693.48,374.61 689.22,369.28 678.85,365.52 C675.10,364.17 672.37,362.57 672.18,361.61 C671.88,360.15 675.38,360.00 709.43,360.00 C741.76,360.00 747.00,360.20 747.00,361.46 C747.00,363.28 744.93,364.37 738.50,365.92 C730.72,367.80 729.00,369.31 729.00,374.27 C729.00,378.91 730.26,382.58 738.63,402.28 C741.71,409.55 746.16,420.23 748.50,426.00 C750.85,431.77 754.65,441.00 756.95,446.50 C759.25,452.00 762.79,460.65 764.82,465.73 C766.84,470.80 768.75,474.97 769.05,474.98 C769.35,474.99 770.56,472.41 771.73,469.25 C772.90,466.09 780.66,446.66 788.96,426.07 C805.82,384.30 807.94,377.68 805.97,372.92 C804.34,368.98 801.71,367.30 793.85,365.18 C789.67,364.06 787.50,362.96 787.50,361.98 C787.50,360.72 791.39,360.46 814.33,360.23 C838.55,359.99 841.12,360.12 840.83,361.58 C840.65,362.47 837.83,364.27 834.54,365.61 C831.26,366.95 827.26,369.27 825.65,370.77 C822.25,373.94 815.48,387.63 807.47,407.50 C801.47,422.37 796.41,434.73 788.02,455.00 C782.70,467.84 776.02,484.06 767.02,505.95 C764.21,512.80 761.43,518.99 760.83,519.70 ZM 557.38 409.55 C557.85,410.78 563.96,411.00 597.97,411.00 C636.67,411.00 638.07,410.93 640.00,409.00 C645.14,403.86 640.21,383.44 631.30,373.04 C629.46,370.88 625.37,367.86 622.22,366.32 C616.94,363.73 615.62,363.52 604.97,363.56 C594.19,363.60 593.01,363.81 586.75,366.74 C579.45,370.15 571.21,377.20 567.15,383.50 C561.64,392.04 556.22,406.51 557.38,409.55 ZM 867.43 409.68 C867.84,410.74 875.59,411.00 907.47,411.00 C946.50,411.00 947.03,410.97 949.13,408.87 C951.04,406.96 951.21,405.97 950.71,399.62 C950.03,390.81 946.86,382.11 941.86,375.32 C938.95,371.38 936.45,369.36 931.29,366.82 C924.89,363.67 924.00,363.50 914.02,363.58 C904.28,363.66 902.98,363.91 896.63,366.94 C887.88,371.11 882.87,375.65 876.84,384.87 C872.06,392.17 866.42,407.04 867.43,409.68 Z" fill="#FFFFFF"/>
  <!-- Subpath para E interior (necesario para el recorte del E) -->
  <path d="M 557.38 409.55 C556.22,406.51 561.64,392.04 567.15,383.50 C571.21,377.20 579.45,370.15 586.75,366.74 C593.01,363.81 594.19,363.60 604.97,363.56 C615.62,363.52 616.94,363.73 622.22,366.32 C625.37,367.86 629.46,370.88 631.30,373.04 C640.21,383.44 645.14,403.86 640.00,409.00 C638.07,410.93 636.67,411.00 597.97,411.00 C563.96,411.00 557.85,410.78 557.38,409.55 ZM 867.43 409.68 C866.42,407.04 872.06,392.17 876.84,384.87 C882.87,375.65 887.88,371.11 896.63,366.94 C902.98,363.91 904.28,363.66 914.02,363.58 C924.00,363.50 924.89,363.67 931.29,366.82 C936.45,369.36 938.95,371.38 941.86,375.32 C946.86,382.11 950.03,390.81 950.71,399.62 C951.21,405.97 951.04,406.96 949.13,408.87 C947.03,410.97 946.50,411.00 907.47,411.00 C875.59,411.00 867.84,410.74 867.43,409.68 Z" fill="#0D0D0F"/>
</svg>
